<?xml version="1.0" standalone="no"?>
<!DOCTYPE svg PUBLIC "-//W3C//DTD SVG 20010904//EN"
 "http://www.w3.org/TR/2001/REC-SVG-20010904/DTD/svg10.dtd">
<svg version="1.0" xmlns="http://www.w3.org/2000/svg"
 width="268.000000pt" height="268.000000pt" viewBox="0 0 268.000000 268.000000"
 preserveAspectRatio="xMidYMid meet">
<metadata>
Created by potrace 1.11, written by Peter Selinger 2001-2013
</metadata>
<g transform="translate(0.000000,268.000000) scale(0.100000,-0.100000)"
fill="#000000" stroke="none">
<path d="M1360 2629 c-121 -15 -180 -24 -235 -36 -16 -4 -32 -7 -35 -8 -219
-44 -477 -160 -645 -289 -399 -308 -548 -782 -363 -1151 58 -115 139 -215 248
-306 60 -50 158 -114 165 -108 2 3 7 36 10 74 3 39 8 90 11 115 2 25 6 74 9
110 4 36 8 76 10 90 2 14 7 66 11 115 3 50 8 97 10 105 1 8 3 32 3 52 l1 38
48 -4 c26 -3 88 -8 137 -11 50 -4 110 -8 135 -10 25 -2 81 -7 125 -10 78 -6
152 -12 245 -20 25 -2 81 -7 125 -10 44 -4 99 -8 122 -10 23 -2 89 -6 145 -10
57 -5 117 -9 133 -11 17 -1 40 -3 53 -3 21 -1 23 -4 17 -51 -3 -28 -7 -71 -10
-98 -6 -72 -15 -162 -20 -207 -11 -116 -16 -185 -12 -185 2 0 22 26 44 58 60
86 93 186 108 332 20 193 45 223 256 300 226 84 354 181 425 325 78 158 48
333 -85 493 -43 52 -158 152 -175 152 -3 0 -21 11 -41 24 -78 54 -297 126
-423 141 -26 3 -63 8 -82 12 -54 9 -397 10 -470 2z m63 -149 c37 -11 100 -65
116 -97 26 -51 -1 -89 -71 -99 -18 -3 -44 -7 -58 -10 -14 -2 -64 -7 -111 -10
-79 -6 -88 -5 -108 15 -12 12 -21 34 -21 52 0 17 -12 53 -27 80 -31 58 -25 70
39 78 62 9 205 4 241 -9z m641 -52 c55 -11 86 -28 86 -46 0 -19 -29 -52 -44
-52 -7 0 -32 -20 -56 -45 -49 -50 -89 -66 -152 -60 -84 9 -166 86 -152 143 7
23 42 50 83 63 33 10 182 9 235 -3z m-1184 -133 c54 -11 110 -46 116 -72 12
-46 -75 -128 -161 -153 -30 -9 -51 -9 -80 -1 -49 14 -55 18 -85 60 -45 64 -26
164 34 173 34 6 138 2 176 -7z m1480 -121 c38 -9 91 -53 106 -90 20 -48 18
-117 -3 -137 -23 -20 -45 -22 -113 -13 -30 4 -73 10 -95 12 -21 3 -46 9 -55
14 -54 29 -85 109 -60 154 11 22 82 61 125 69 21 4 52 1 95 -9z m-1820 -179
c64 -14 111 -44 126 -81 16 -37 12 -50 -26 -82 -49 -41 -161 -79 -204 -68 -19
5 -25 14 -30 50 -5 33 -16 52 -40 74 -62 54 -53 86 30 107 49 12 90 12 144 0z
m1378 -192 c22 -11 45 -33 56 -54 18 -32 18 -41 7 -78 -36 -120 -223 -233
-387 -234 -152 0 -225 85 -167 197 72 138 354 236 491 169z m-1505 -213 c60
-23 118 -58 124 -76 6 -19 -25 -43 -70 -55 -28 -7 -80 -9 -154 -4 l-113 7 0
27 c0 30 34 99 59 119 21 16 81 9 154 -18z"/>
<path d="M597 1393 c-7 -11 -15 -74 -23 -168 -3 -44 -8 -91 -9 -105 -1 -14 -5
-59 -9 -100 -4 -41 -9 -95 -11 -120 -3 -25 -7 -70 -10 -100 -3 -30 -7 -75 -10
-100 -12 -115 -15 -150 -20 -222 -4 -43 -8 -87 -10 -97 -3 -16 -7 -67 -18
-220 -2 -27 -10 -25 148 -36 55 -4 116 -8 135 -10 41 -3 176 -13 275 -20 39
-3 93 -8 120 -10 28 -3 84 -7 125 -10 41 -3 95 -8 120 -10 25 -3 83 -7 130
-11 47 -3 102 -7 122 -9 21 -2 39 -1 42 3 2 4 7 39 10 77 4 39 9 90 11 115 2
25 9 95 15 155 6 61 13 133 15 160 3 28 7 73 10 100 3 28 7 75 10 105 9 114
16 186 20 225 7 52 13 122 20 215 4 41 8 81 10 88 3 8 -7 12 -28 13 -18 0 -39
2 -47 4 -9 1 -63 6 -120 9 -58 4 -123 9 -145 11 -22 2 -70 7 -107 10 -38 3
-96 7 -130 10 -101 8 -277 22 -378 30 -30 2 -98 7 -150 11 -52 3 -98 8 -102
10 -4 2 -9 1 -11 -3z m283 -108 c25 -2 72 -7 105 -10 33 -3 92 -7 130 -10 39
-3 93 -7 120 -10 28 -2 88 -7 135 -10 47 -4 101 -8 120 -10 19 -2 80 -6 135
-10 55 -4 104 -9 108 -12 7 -4 2 -107 -8 -173 -2 -14 -7 -65 -11 -115 -3 -49
-7 -97 -9 -105 -2 -8 -6 -53 -9 -100 -4 -47 -9 -96 -11 -110 -2 -14 -7 -61
-10 -105 -3 -44 -8 -89 -10 -100 -2 -11 -4 -33 -4 -49 l-1 -28 -92 6 c-51 4
-109 9 -128 11 -33 4 -102 9 -260 20 -36 3 -90 7 -120 10 -206 17 -277 23
-385 30 -102 8 -105 9 -100 33 1 9 6 55 10 102 4 47 8 92 10 100 1 8 6 58 10
110 4 52 9 102 10 110 1 8 6 51 9 95 4 44 9 96 11 115 7 67 18 185 18 208 1
23 2 24 92 17 49 -3 110 -8 135 -10z"/>
</g>
</svg>
