<?xml version="1.0" encoding="UTF-8" standalone="no"?>
<!-- Created with Inkscape (http://www.inkscape.org/) -->

<svg
   xmlns:dc="http://purl.org/dc/elements/1.1/"
   xmlns:cc="http://creativecommons.org/ns#"
   xmlns:rdf="http://www.w3.org/1999/02/22-rdf-syntax-ns#"
   xmlns:svg="http://www.w3.org/2000/svg"
   xmlns="http://www.w3.org/2000/svg"
   xmlns:sodipodi="http://sodipodi.sourceforge.net/DTD/sodipodi-0.dtd"
   xmlns:inkscape="http://www.inkscape.org/namespaces/inkscape"
   width="224.24445"
   height="224.24445"
   viewBox="0 0 59.331342 59.331343"
   version="1.1"
   id="svg8"
   inkscape:version="0.92.3 (2405546, 2018-03-11)"
   sodipodi:docname="logo-mono.svg"
   inkscape:export-filename="D:\projects\vibrant-gui\img\logo\logo-mono.png"
   inkscape:export-xdpi="114.73154"
   inkscape:export-ydpi="114.73154">
  <defs
     id="defs2" />
  <sodipodi:namedview
     id="base"
     pagecolor="#ffffff"
     bordercolor="#666666"
     borderopacity="1.0"
     inkscape:pageopacity="0.0"
     inkscape:pageshadow="2"
     inkscape:zoom="2"
     inkscape:cx="125.42891"
     inkscape:cy="33.599464"
     inkscape:document-units="px"
     inkscape:current-layer="layer1"
     showgrid="false"
     fit-margin-top="0"
     fit-margin-left="0"
     fit-margin-right="0"
     fit-margin-bottom="0"
     units="px"
     inkscape:window-width="1920"
     inkscape:window-height="1017"
     inkscape:window-x="1912"
     inkscape:window-y="176"
     inkscape:window-maximized="1" />
  <metadata
     id="metadata5">
    <rdf:RDF>
      <cc:Work
         rdf:about="">
        <dc:format>image/svg+xml</dc:format>
        <dc:type
           rdf:resource="http://purl.org/dc/dcmitype/StillImage" />
        <dc:title></dc:title>
      </cc:Work>
    </rdf:RDF>
  </metadata>
  <g
     inkscape:label="Layer 1"
     inkscape:groupmode="layer"
     id="layer1"
     transform="translate(46.577092,-117.24869)">
    <path
       style="fill:#000000;fill-opacity:1;stroke:none;stroke-width:0.55969489;stroke-linecap:round;stroke-linejoin:round;stroke-miterlimit:4;stroke-dasharray:none;stroke-opacity:1"
       d="m -11.338123,118.17283 c -18.03907,-0.0957 -32.318233,8.80999 -34.9312,22.41827 -1.599566,8.33051 3.194806,15.78766 10.691337,19.95279 l 1.473295,-15.60991 28.4644126,2.23294 -1.133266,12.00909 c 2.0423902,-1.97683 3.0966754,-4.67617 3.4959105,-8.66769 0.314751,-4.52072 0.7001404,-4.94281 6.3572363,-6.96495 16.5816676,-5.92714 10.6549246,-22.97568 -8.7074798,-25.04705 -1.9378321,-0.2073 -3.8441338,-0.31359 -5.7102456,-0.32349 z m -6.802167,3.18998 c 3.029479,0 3.447835,0.1306 4.922178,1.53996 1.800725,1.72135 1.197581,2.98269 -1.563211,3.26957 -0.995799,0.10347 -2.46507,0.26247 -3.265434,0.35347 -1.892105,0.21507 -2.643534,-0.25864 -2.652034,-1.67225 -0.0034,-0.56017 -0.226368,-1.25948 -0.522966,-1.63866 -1.212773,-1.55044 -0.711146,-1.85209 3.081467,-1.85209 z m 14.0957798,1.17564 c 4.46757686,-0.0135 6.4994525,1.18387 4.13618095,2.43758 -0.63561648,0.33719 -1.30732215,0.89703 -1.49293265,1.24385 -0.59926,1.11972 -3.104552,1.56018 -4.5139371,0.79375 -3.4854171,-1.89536 -2.412492,-4.46227 1.8706888,-4.47518 z m -25.0697878,2.96003 c 2.860761,0.0571 5.30686,1.29394 4.526855,2.64428 -1.490836,2.58092 -5.016957,3.64091 -6.656958,2.00091 -1.486669,-1.48667 -1.415487,-4.19579 0.117822,-4.48344 0.669812,-0.12566 1.352105,-0.17492 2.012281,-0.16175 z m 33.5193993,2.71353 c 2.1806244,0.0355 3.985805,1.54924 3.985805,3.93154 0,1.64815 -0.940509,2.14619 -3.0427083,1.61127 -0.4365651,-0.11109 -1.3959998,-0.21585 -2.1321712,-0.23306 -2.22513786,-0.052 -3.60810169,-3.27341 -1.8825712,-4.38474 1.0120021,-0.65178 2.0804531,-0.94116 3.0716457,-0.92501 z m -40.7835553,3.98994 c 2.709252,-0.0223 4.947905,1.25324 4.769218,2.80706 -0.155409,1.35139 -4.813149,3.30367 -5.719548,2.39727 -0.174625,-0.17463 -0.31781,-0.70807 -0.31781,-1.18494 0,-0.63656 -0.178272,-0.98404 -0.671794,-1.30741 -1.852716,-1.21394 -1.185385,-2.50331 1.392163,-2.68976 0.184223,-0.0133 0.367154,-0.0207 0.547771,-0.0222 z m 29.7687238,3.92999 c 1.7524147,-0.0137 3.2338988,0.51704 3.8219908,1.75028 0.8882327,1.86264 -1.0111925,4.45501 -4.3847463,5.98465 -4.6507933,2.10877 -9.2532703,0.51725 -8.1111323,-2.805 0.9946,-2.8931 5.3283718,-4.90369 8.6738878,-4.92993 z m -33.4899438,4.53616 c 1.112181,0.0448 4.038805,1.1038 5.045686,1.89755 1.535348,1.21038 -1.692181,2.38853 -4.841564,1.76734 -0.582084,-0.11481 -1.385755,-0.1457 -1.785938,-0.0687 -1.190024,0.2289 -0.129287,-2.83887 1.227315,-3.54965 0.07394,-0.0387 0.195618,-0.0529 0.354501,-0.0465 z m 6.612516,5.02191 -2.627747,27.8412 27.0975697,2.12545 2.6272304,-27.8412 z m 1.44694,2.07688 24.0295402,1.90582 -1.8520833,19.65772 -24.0295399,-1.90583 z"
       id="rect968-6"
       inkscape:connector-curvature="0" />
  </g>
</svg>
